# xmcd CD database file
#
# Track frame offsets:
#	150
#	37375
#	77132
#	95137
#	117813
#	127557
#	138842
#	156623
#	169788
#	184783
#	200968
#	247462
#	278490
#	305126
#	324936
#
# Disc length: 4499 seconds
#
# Revision: 2
# Processed by: cddbd v1.5.2PL0 Copyright (c) Steve Scherf et al.
# Submitted via: CDex 1.51
#
DISCID=e011910f
DTITLE=Dave Brubeck - The Ultimate Dave Brubeck Collection - Disk 3
DYEAR=2012
DGENRE=Jazz
TTITLE0=Someday My Prince Will Come
TTITLE1=Love Walked In
TTITLE2=Weep No More
TTITLE3=One Song
TTITLE4=There'll Be Some Changes Made
TTITLE5=Short'nin' Bread
TTITLE6=Maori Blues
TTITLE7=The Duke
TTITLE8=When I Was Young
TTITLE9=Audrey
TTITLE10=Tangerine
TTITLE11=Brandenburg Gate
TTITLE12=Indiana
TTITLE13=Everybody's Jumpin
TTITLE14=Walkin' Line
EXTD=YEAR: 2012
EXTT0=
EXTT1=
EXTT2=
EXTT3=
EXTT4=
EXTT5=
EXTT6=
EXTT7=
EXTT8=
EXTT9=
EXTT10=
EXTT11=
EXTT12=
EXTT13=
EXTT14=
PLAYORDER=
